<mxfile host="app.diagrams.net" modified="2022-10-28T06:10:32.304Z" agent="5.0 (Macintosh; Intel Mac OS X 10_15_7) AppleWebKit/537.36 (KHTML, like Gecko) Chrome/106.0.0.0 Safari/537.36" etag="RyzKt2-RZxGXVepiSLfZ" version="20.5.1" type="github">
  <diagram id="Bomps37VIKHpNAe9YnZH" name="第 1 页">
    <mxGraphModel dx="1298" dy="834" grid="1" gridSize="10" guides="1" tooltips="1" connect="1" arrows="1" fold="1" page="1" pageScale="1" pageWidth="827" pageHeight="1169" math="0" shadow="0">
      <root>
        <mxCell id="0" />
        <mxCell id="1" parent="0" />
        <mxCell id="GRqfUsxwz95-C4cLxFxg-1" value="AWS" style="rounded=0;whiteSpace=wrap;html=1;fillColor=#f5f5f5;fontColor=#333333;strokeColor=#666666;fontStyle=1;verticalAlign=top;" vertex="1" parent="1">
          <mxGeometry x="40" y="320" width="360" height="560" as="geometry" />
        </mxCell>
        <mxCell id="GRqfUsxwz95-C4cLxFxg-12" value="B-service" style="rounded=0;whiteSpace=wrap;html=1;strokeColor=#000000;verticalAlign=top;" vertex="1" parent="1">
          <mxGeometry x="120" y="570" width="200" height="130" as="geometry" />
        </mxCell>
        <mxCell id="GRqfUsxwz95-C4cLxFxg-2" value="Aliyun" style="rounded=0;whiteSpace=wrap;html=1;fillColor=#ffe6cc;strokeColor=#d79b00;fontStyle=1;verticalAlign=top;" vertex="1" parent="1">
          <mxGeometry x="570" y="320" width="360" height="560" as="geometry" />
        </mxCell>
        <mxCell id="GRqfUsxwz95-C4cLxFxg-14" style="edgeStyle=orthogonalEdgeStyle;rounded=0;orthogonalLoop=1;jettySize=auto;html=1;entryX=0.5;entryY=0;entryDx=0;entryDy=0;exitX=0.52;exitY=1;exitDx=0;exitDy=0;exitPerimeter=0;curved=1;" edge="1" parent="1" source="GRqfUsxwz95-C4cLxFxg-3" target="GRqfUsxwz95-C4cLxFxg-7">
          <mxGeometry relative="1" as="geometry" />
        </mxCell>
        <mxCell id="GRqfUsxwz95-C4cLxFxg-3" value="" style="verticalLabelPosition=bottom;verticalAlign=top;html=1;shadow=0;dashed=0;strokeWidth=1;shape=mxgraph.android.phone2;strokeColor=#000000;" vertex="1" parent="1">
          <mxGeometry x="380" y="120" width="50" height="70" as="geometry" />
        </mxCell>
        <mxCell id="GRqfUsxwz95-C4cLxFxg-6" style="edgeStyle=orthogonalEdgeStyle;rounded=0;orthogonalLoop=1;jettySize=auto;html=1;entryX=0;entryY=0.5;entryDx=0;entryDy=0;entryPerimeter=0;" edge="1" parent="1" source="GRqfUsxwz95-C4cLxFxg-4" target="GRqfUsxwz95-C4cLxFxg-5">
          <mxGeometry relative="1" as="geometry" />
        </mxCell>
        <mxCell id="GRqfUsxwz95-C4cLxFxg-18" value="DTS" style="edgeLabel;html=1;align=center;verticalAlign=middle;resizable=0;points=[];" vertex="1" connectable="0" parent="GRqfUsxwz95-C4cLxFxg-6">
          <mxGeometry x="-0.0708" y="1" relative="1" as="geometry">
            <mxPoint as="offset" />
          </mxGeometry>
        </mxCell>
        <mxCell id="GRqfUsxwz95-C4cLxFxg-4" value="" style="shape=cylinder3;whiteSpace=wrap;html=1;boundedLbl=1;backgroundOutline=1;size=15;strokeColor=#000000;" vertex="1" parent="1">
          <mxGeometry x="190" y="760" width="60" height="80" as="geometry" />
        </mxCell>
        <mxCell id="GRqfUsxwz95-C4cLxFxg-5" value="" style="shape=cylinder3;whiteSpace=wrap;html=1;boundedLbl=1;backgroundOutline=1;size=15;strokeColor=#000000;" vertex="1" parent="1">
          <mxGeometry x="730" y="760" width="60" height="80" as="geometry" />
        </mxCell>
        <mxCell id="GRqfUsxwz95-C4cLxFxg-15" style="edgeStyle=orthogonalEdgeStyle;curved=1;rounded=0;orthogonalLoop=1;jettySize=auto;html=1;entryX=0.5;entryY=0;entryDx=0;entryDy=0;" edge="1" parent="1" source="GRqfUsxwz95-C4cLxFxg-7" target="GRqfUsxwz95-C4cLxFxg-11">
          <mxGeometry relative="1" as="geometry" />
        </mxCell>
        <mxCell id="GRqfUsxwz95-C4cLxFxg-7" value="Nginx" style="rounded=0;whiteSpace=wrap;html=1;strokeColor=#000000;" vertex="1" parent="1">
          <mxGeometry x="160" y="370" width="120" height="60" as="geometry" />
        </mxCell>
        <mxCell id="GRqfUsxwz95-C4cLxFxg-8" value="ng-ingress" style="rounded=0;whiteSpace=wrap;html=1;strokeColor=#000000;" vertex="1" parent="1">
          <mxGeometry x="690" y="370" width="120" height="60" as="geometry" />
        </mxCell>
        <mxCell id="GRqfUsxwz95-C4cLxFxg-9" value="rpc 网关" style="ellipse;whiteSpace=wrap;html=1;aspect=fixed;strokeColor=#000000;" vertex="1" parent="1">
          <mxGeometry x="360" y="360" width="80" height="80" as="geometry" />
        </mxCell>
        <mxCell id="GRqfUsxwz95-C4cLxFxg-26" style="edgeStyle=orthogonalEdgeStyle;curved=1;rounded=0;orthogonalLoop=1;jettySize=auto;html=1;entryX=0.5;entryY=0;entryDx=0;entryDy=0;exitX=1;exitY=1;exitDx=0;exitDy=0;" edge="1" parent="1" source="GRqfUsxwz95-C4cLxFxg-10" target="GRqfUsxwz95-C4cLxFxg-13">
          <mxGeometry relative="1" as="geometry">
            <Array as="points">
              <mxPoint x="598" y="470" />
              <mxPoint x="760" y="470" />
            </Array>
          </mxGeometry>
        </mxCell>
        <mxCell id="GRqfUsxwz95-C4cLxFxg-10" value="rpc 网关" style="ellipse;whiteSpace=wrap;html=1;aspect=fixed;strokeColor=#000000;" vertex="1" parent="1">
          <mxGeometry x="530" y="360" width="80" height="80" as="geometry" />
        </mxCell>
        <mxCell id="GRqfUsxwz95-C4cLxFxg-16" style="edgeStyle=orthogonalEdgeStyle;curved=1;rounded=0;orthogonalLoop=1;jettySize=auto;html=1;entryX=0.5;entryY=0;entryDx=0;entryDy=0;" edge="1" parent="1" source="GRqfUsxwz95-C4cLxFxg-11" target="GRqfUsxwz95-C4cLxFxg-12">
          <mxGeometry relative="1" as="geometry" />
        </mxCell>
        <mxCell id="GRqfUsxwz95-C4cLxFxg-11" value="A-service" style="rounded=0;whiteSpace=wrap;html=1;strokeColor=#000000;" vertex="1" parent="1">
          <mxGeometry x="160" y="470" width="120" height="60" as="geometry" />
        </mxCell>
        <mxCell id="GRqfUsxwz95-C4cLxFxg-17" style="edgeStyle=orthogonalEdgeStyle;curved=1;rounded=0;orthogonalLoop=1;jettySize=auto;html=1;entryX=0.5;entryY=0;entryDx=0;entryDy=0;entryPerimeter=0;" edge="1" parent="1" source="GRqfUsxwz95-C4cLxFxg-12" target="GRqfUsxwz95-C4cLxFxg-4">
          <mxGeometry relative="1" as="geometry" />
        </mxCell>
        <mxCell id="GRqfUsxwz95-C4cLxFxg-27" style="edgeStyle=orthogonalEdgeStyle;curved=1;rounded=0;orthogonalLoop=1;jettySize=auto;html=1;entryX=0.5;entryY=0;entryDx=0;entryDy=0;entryPerimeter=0;" edge="1" parent="1" source="GRqfUsxwz95-C4cLxFxg-13" target="GRqfUsxwz95-C4cLxFxg-5">
          <mxGeometry relative="1" as="geometry" />
        </mxCell>
        <mxCell id="GRqfUsxwz95-C4cLxFxg-13" value="B-service" style="rounded=0;whiteSpace=wrap;html=1;strokeColor=#000000;" vertex="1" parent="1">
          <mxGeometry x="700" y="570" width="120" height="60" as="geometry" />
        </mxCell>
        <mxCell id="GRqfUsxwz95-C4cLxFxg-22" style="edgeStyle=orthogonalEdgeStyle;curved=1;rounded=0;orthogonalLoop=1;jettySize=auto;html=1;entryX=0.5;entryY=1;entryDx=0;entryDy=0;" edge="1" parent="1" source="GRqfUsxwz95-C4cLxFxg-19" target="GRqfUsxwz95-C4cLxFxg-12">
          <mxGeometry relative="1" as="geometry">
            <Array as="points">
              <mxPoint x="220" y="680" />
              <mxPoint x="220" y="680" />
            </Array>
          </mxGeometry>
        </mxCell>
        <mxCell id="GRqfUsxwz95-C4cLxFxg-25" value="90%" style="edgeLabel;html=1;align=center;verticalAlign=middle;resizable=0;points=[];" vertex="1" connectable="0" parent="GRqfUsxwz95-C4cLxFxg-22">
          <mxGeometry x="-0.0333" relative="1" as="geometry">
            <mxPoint as="offset" />
          </mxGeometry>
        </mxCell>
        <mxCell id="GRqfUsxwz95-C4cLxFxg-23" style="edgeStyle=orthogonalEdgeStyle;curved=1;rounded=0;orthogonalLoop=1;jettySize=auto;html=1;entryX=0;entryY=0.5;entryDx=0;entryDy=0;" edge="1" parent="1" target="GRqfUsxwz95-C4cLxFxg-10">
          <mxGeometry relative="1" as="geometry">
            <mxPoint x="220" y="640" as="sourcePoint" />
            <Array as="points">
              <mxPoint x="220" y="670" />
              <mxPoint x="470" y="670" />
              <mxPoint x="470" y="400" />
            </Array>
          </mxGeometry>
        </mxCell>
        <mxCell id="GRqfUsxwz95-C4cLxFxg-24" value="10%" style="edgeLabel;html=1;align=center;verticalAlign=middle;resizable=0;points=[];" vertex="1" connectable="0" parent="GRqfUsxwz95-C4cLxFxg-23">
          <mxGeometry x="0.0918" y="17" relative="1" as="geometry">
            <mxPoint as="offset" />
          </mxGeometry>
        </mxCell>
        <mxCell id="GRqfUsxwz95-C4cLxFxg-19" value="流量拦截器" style="rounded=0;whiteSpace=wrap;html=1;strokeColor=#000000;" vertex="1" parent="1">
          <mxGeometry x="165" y="600" width="110" height="40" as="geometry" />
        </mxCell>
        <mxCell id="GRqfUsxwz95-C4cLxFxg-20" style="edgeStyle=orthogonalEdgeStyle;curved=1;rounded=0;orthogonalLoop=1;jettySize=auto;html=1;entryX=0.5;entryY=0;entryDx=0;entryDy=0;" edge="1" parent="1" source="GRqfUsxwz95-C4cLxFxg-12" target="GRqfUsxwz95-C4cLxFxg-19">
          <mxGeometry relative="1" as="geometry" />
        </mxCell>
      </root>
    </mxGraphModel>
  </diagram>
</mxfile>
